<svg xmlns="http://www.w3.org/2000/svg" width="110" height="110" xmlns:v="https://vecta.io/nano"><circle cx="55" cy="55" r="55" fill="#fff"/><circle cx="55.999" cy="55" r="25.715" fill="#65b1ef"/><g fill="#e9eff4"><path d="M43.501 76.577c0 .01-.011.016-.016.026l.114.031zm-1.618-36.243l-.051-.1c.43-.064.459-.367.785-.478.372-.122.245.011.61 0 .3-.013.476.2.814.045-.091.138-.21.255-.349.343-.265.216-.569.378-.895.478-.335.094-.694-.019-.914-.288z"/><path d="M47.028 63.255c-.031.224-.119.436-.256.616-.52.851-.828 1.815-.9 2.81-.069.948-.027 2.117-.853 2.583-.472.262-1.135.216-1.449.658a1.47 1.47 0 0 0-.192.46q-.3 1.108-.61 2.216l-.79-.08a.58.58 0 0 1 .338.8c-.325-.127-.694.014-.85.327a1.37 1.37 0 0 0-.047.983 2.87 2.87 0 0 0 2.067 1.977c-.169.32-.686.18-1-.034a11.98 11.98 0 0 1-4.727-6.448 9.44 9.44 0 0 0-.985-2.686c-.447-.668-1.123-1.157-1.571-1.825-.628-.959-.745-2.2-1.473-3.081-.407-.5-1.037-1.115-.676-1.651.145-.221.454-.43.332-.663-.04-.076-.122-.122-.187-.187-.245-.262-.076-.674.047-1.012a3.95 3.95 0 0 0 .116-1.843 5.3 5.3 0 0 1-1.4-1.989c-.18-.465-.42-1.046-.919-1.053l-.391-1.082c-.054.128-.175.216-.314.227a25.57 25.57 0 0 1 6.461-15.379 2.56 2.56 0 0 0 .245-.129c.877-.512 1.576-1.28 2.424-1.838a.92.92 0 0 1 .587-.2c.209.018.407.232.332.43-.035.082-.094.152-.169.2a17.94 17.94 0 0 1-3.238 2.2c-.146.055-.268.157-.348.291a.49.49 0 0 0 .332.621 1.45 1.45 0 0 0 .785-.023 1.27 1.27 0 0 0-.169 1.072c.238.023.314-.3.385-.53.29-.9 1.727-1.268 1.634-2.218.39.2.785-.251 1.024-.623s.768-.75 1.059-.418l.056.559 1.542-.391a.74.74 0 0 0-.238.966.74.74 0 0 0 .938.334c0 .274-.249.483-.472.645a6.44 6.44 0 0 1-1.825 1.07l.151.314c-.016.008-.034.012-.052.013-.418.04-.861-.261-1.309-.2-.274.035-.61.035-.768.314-.023.035-.121.523-.052.483l.728-.418a1.19 1.19 0 0 1 .052.634c.302-.03.607.037.868.192-.295.648-.958 1.047-1.669 1.006l-.024-.628c-.579.04-1.088.399-1.32.932a3.74 3.74 0 0 1-.988 1.373c-.311.164-.631.31-.959.436a.87.87 0 0 0-.528.832 2.43 2.43 0 0 1 .129.483c-.018.314-.383.46-.628.663-.418.349-.523.99-.971 1.3a3.89 3.89 0 0 1-1.135.338c-.378.116-.756.494-.6.861a.34.34 0 0 1-.431-.274 12.78 12.78 0 0 0-1.297 4.204c.332.232.668-.3.732-.7s.418-.925.744-.687l-.225 1.722a.51.51 0 0 0 .024.325c.064.122.2.174.309.261.3.256.256.71.274 1.1a2.8 2.8 0 0 0 .425 1.349c-.024-.082-.04-.163-.058-.245.459.056.92-.086 1.268-.391a1.9 1.9 0 0 1 .559-.454 1.2 1.2 0 0 1 .728.04c.759.129 1.462.482 2.02 1.012a6.26 6.26 0 0 0 .7.913c.674.57 1.816.319 2.432.953a2.3 2.3 0 0 1 .269 2.041c-.338-.185-.79.28-.592.612a.97.97 0 0 1 .652-.407c.267-.006.5.361.3.53a1.07 1.07 0 0 1 1.785.39l1.96.145c-.12.953 1.882 1.005 1.842 1.971zm-3.965-26.911a.5.5 0 1 1-.333-.934c.172-.04.412-.021.465-.19a.54.54 0 0 0 .006-.161.74.74 0 0 1 .586-.663 2.16 2.16 0 0 1 .945.043 1.17 1.17 0 0 1 .09.747l-.642.027c.019.356-.016.8-.346.935-.3.118-.682-.1-.929.1m3.492-3.46c.584-.28 1.078-.721 1.655-1.017a7.61 7.61 0 0 1 3.263-.589l7.605-.237q-.881.483-1.764.967a2.14 2.14 0 0 1-1.552.385c.006.442.359.8.8.813-1.041.644-2.487-.014-3.586.526-.46.227-.832.655-1.339.736-.293.047-.6-.032-.888.032-.488.106-.8.568-1.156.913-.396.435-.997.619-1.568.48-.542-.19-.826-1-.391-1.373.243-.145.503-.261.773-.346.253-.129.452-.475.262-.686-.082-.092-.217-.127-.293-.225s-.074-.258-.142-.373c-.258-.452-.974.156-1.461-.026m7.477 2.163a5.14 5.14 0 0 0 .961-.43 1.2 1.2 0 0 1 1.016-.079c.093.233-.175.446-.412.53a2.88 2.88 0 0 1-1.421.124m20.586 2.412a.82.82 0 0 1-.291-.018 3.64 3.64 0 0 1-1.141-.674c-.89-.573-2.014-.641-2.966-.179.222-.324.33-.713.307-1.106l-.134.047c-1.524-.884-3.311-1.8-4.974-1.207-.385.14-.732.349-1.122.483a4.6 4.6 0 0 0-1.226.46c-.361.256-.552.821-.243 1.128.262.262.681.192 1.048.227s.774.394.576.7q-2.39 1.118-4.785 2.249c.751.268 1.199 1.04 1.059 1.825-.536.093-1.053-.232-1.593-.267a1.47 1.47 0 1 0-.068 2.937c.588-.006 1.164-.361 1.734-.211a2.22 2.22 0 0 1 .766-1.373 2.81 2.81 0 0 1 2.757-1.037 3.13 3.13 0 0 1 .861.546q.881.7 1.764 1.407l.559-.57.966 1.017.494-.327.356.9.127-.983a2.37 2.37 0 0 0 1.14-.151.8.8 0 0 0 .459-.948c-.076-.192-.256-.343-.291-.547-.076-.407.505-.686.884-.5a1.75 1.75 0 0 1 .716.995l.256-1.181a9.34 9.34 0 0 0 1.54 2.636c-1.198-.225-2.436-.099-3.565.362a1.87 1.87 0 0 0 1.577.773c.274-.006.576-.069.785.1a.84.84 0 0 1 .227.547l.274 1.663a3.74 3.74 0 0 0-2.356-.475c-.821-.023-1.78-.249-2.083-1.011-.329.378-.468.886-.377 1.379-.85-.2-1.827-.528-2.072-1.367a1.32 1.32 0 0 1-1.669-.86c-.064-.238-.082-.53-.291-.657a.71.71 0 0 0-.443-.047l-3.774.433c-.693.036-1.372.206-2 .5a1.82 1.82 0 0 0-1.017 1.671c-1.164.693-2.129 1.675-2.8 2.852-.241.344-.35.763-.307 1.181.058.314.267.581.332.89.01.539-.099 1.073-.319 1.565-.361 1.489.769 2.891 1.817 4.017a2.85 2.85 0 0 0 1.787 1.122 3.28 3.28 0 0 0 1.291-.344 9.36 9.36 0 0 1 3.786-.636c-.291.227.011.721.373.8a8.56 8.56 0 0 1 1.1.08c.8.285.687 1.453.327 2.216l.552-.1-.3.761c1.093.138 1.507 1.576 1.252 2.651a15.75 15.75 0 0 0-.906 3.171 5.64 5.64 0 0 0 .367 1.767q.7 2.19 1.4 4.384c1.3.156 2.052-1.5 3.263-2.02a4.29 4.29 0 0 0 1.344-.576c.343-.325.232-1.088-.209-1.088.619-.084 1.092-.594 1.128-1.217.006-.169-.018-.338 0-.505.062-.24.177-.462.336-.652a21.23 21.23 0 0 0 2.121-4.346l.47-1.2 1.772-4.479.7-1.758a1.13 1.13 0 0 1-1.635.064c-.427-.452-.8-.951-1.112-1.489a4.47 4.47 0 0 1-.9-1.32 7.9 7.9 0 0 1-.122-.926c-.197-.649-.487-1.266-.861-1.832a1.83 1.83 0 0 1-.035-1.92 73.6 73.6 0 0 1 3.341 6.583c.115-.353.363-.648.692-.821l.757-.285c.683-.297 1.124-.972 1.121-1.717s-.449-1.417-1.134-1.708a7.14 7.14 0 0 1-1.024-.378.71.71 0 0 1-.343-.919.73.73 0 0 1 .942-.122c.309.169.536.454.826.645.209.14.454.232.681.361 1.228.7 1.531 2.3 1.788 3.7l.484 2.228v-.476a25.62 25.62 0 0 0-6.894-17.493zm2.355 8.45a.91.91 0 0 1-.46-.227c-.237-.155-.416-.384-.507-.652-.076-.325.08-.7-.093-.988a1.32 1.32 0 0 0-.349-.325 1.83 1.83 0 0 1-.641-1.017c-.076-.349.034-.814.39-.872.176-.026.349.063.43.221l-.238.129a.55.55 0 0 1 .28.913c-.04.04-.093.076-.093.134.003.037.022.072.053.093.283.235.603.419.948.546.325.169.645.483.594.843l-.307.116c-.111.111-.023.309.093.418s.267.221.274.383c-.026.181-.192.309-.374.286zm.167 17.896l-.42.3a1.14 1.14 0 0 1-.644 1.32c-.262.106-.612.153-.7.422-.074.229.1.46.127.7.039.4-.332.692-.6.987s-.409.848-.053 1.025a.73.73 0 0 0 .269.058 1.67 1.67 0 0 0 1.125-.18c.9-.645.045-2.4.938-3.06.127-.093.286-.161.356-.3.212-.424-.565-.837-.398-1.272z"/></g></svg>