<svg xmlns="http://www.w3.org/2000/svg" xmlns:xlink="http://www.w3.org/1999/xlink" width="33.088" height="33.088" xmlns:v="https://vecta.io/nano"><defs><linearGradient id="A" x1=".332" y1=".141" x2=".585" y2=".682"><stop offset="0" stop-color="#3457a0"/><stop offset="1" stop-color="#3b5998"/></linearGradient><linearGradient id="B" x1=".714" y1=".647" x2="-.271" y2="-.03"><stop offset="0" stop-color="#3457a0" stop-opacity="0"/><stop offset="1" stop-color="#1f3f77"/></linearGradient><linearGradient id="C" x1=".5" y1=".177" x2=".5" y2=".855" xlink:href="#B"/><linearGradient id="D" x1="1.26" y1=".791" x2=".043" y2=".371"><stop offset="0" stop-color="#3457a0" stop-opacity="0"/><stop offset=".325" stop-color="#2a4c8d" stop-opacity=".325"/><stop offset=".705" stop-color="#22427d" stop-opacity=".706"/><stop offset="1" stop-color="#1f3f77"/></linearGradient></defs><path d="M27.17 32.522a99.94 99.94 0 0 1-21.252 0C3.096 32.221.867 29.992.566 27.17a99.94 99.94 0 0 1 0-21.251C.867 3.097 3.096.868 5.918.567a99.94 99.94 0 0 1 21.251 0c2.822.301 5.051 2.53 5.352 5.352a99.94 99.94 0 0 1 0 21.251c-.301 2.822-2.53 5.051-5.352 5.352zm0 0" fill="url(#A)"/><path d="M30.684 7.14c-.266-2.497-2.239-4.47-4.736-4.737a88.48 88.48 0 0 0-18.808 0c-2.497.267-4.47 2.24-4.737 4.737a88.48 88.48 0 0 0 0 18.807c.266 2.498 2.239 4.471 4.737 4.737 6.251.668 12.556.668 18.807 0 2.498-.266 4.471-2.239 4.737-4.737.668-6.251.668-12.556 0-18.807zm0 0" fill="url(#B)"/><path d="M.506 26.345q.034.35.071.7a6.09 6.09 0 0 0 5.349 5.464c7.058.771 14.18.771 21.238 0a6.09 6.09 0 0 0 5.348-5.464q.037-.35.071-.7zm0 0" fill="url(#C)"/><path d="M22.017 4.93a5.33 5.33 0 0 0-5.33 5.33v3.981h-2.868v4.929l2.868 2.569v11.348c3.46-.017 6.917-.21 10.358-.577 2.881-.307 5.158-2.584 5.465-5.465a102.04 102.04 0 0 0 .44-16.147L26.982 4.93zm0 0" fill="url(#D)"/><path d="M16.894 33.087q2.953-.014 5.9-.2V19.17h3.917l.473-4.929h-4.391v-3.13a1.25 1.25 0 0 1 1.256-1.251h3.139V4.93h-4.965a5.33 5.33 0 0 0-5.33 5.33v3.981h-2.868v4.929h2.868zm0 0" fill="#fff"/></svg>