<svg xmlns="http://www.w3.org/2000/svg" width="1137.333" height="1706.667" viewBox="0 0 853 1280" preserveAspectRatio="xMidYMid meet" xmlns:v="https://vecta.io/nano"><path d="M406 1.1c-19.4 2.2-40.2 8.1-57.7 16.4-47.2 22.4-78.9 62.6-89.4 113.5l-2.4 11.5V400l1.8 266.5c14.5 71 75.5 126 149.2 134.5 32.7 3.7 67.1-2.1 97.5-16.6 47.3-22.6 78.9-62.9 89.2-113.7l2.3-11.2V402l-1.8-266.5C583.1 77.9 539.1 28.9 481.3 9.1c-22.7-7.8-50.8-10.8-75.3-8zM30.1 479.6C14.3 483.8 3.9 495.2.9 511.5c-.7 3.8-.9 31.2-.6 83.9.3 64.8.7 80.5 2.1 92.1 6.4 53.8 17.7 92.8 39.1 135 18.4 36.1 38 63 67 92 52.9 52.8 121.6 90.6 202 111 11.6 2.9 23.1 5.6 25.8 6l4.7.7v85.4 85.4h-65.7c-71.7 0-74.3.2-85.1 5.7-6.9 3.5-15.5 12.7-17.6 18.9-5.3 15.5 3.6 35.7 20.3 46.3 10.3 6.6-6.9 6.1 234.1 6.1 237.7 0 223.5.3 234.9-5.4 6.4-3.3 14.4-12.2 17.3-19.4 1.9-4.9 2.3-7.5 2.3-18.2 0-12-.1-12.8-3.2-19.2-3.6-7.6-10-14.6-16.5-17.9-9.5-4.8-10-4.9-82-4.9H512v-85.4c0-80.5.1-85.5 1.8-86l5.2-1.1c40.6-7.7 93.4-27.1 131.3-48.4 108.8-60.9 177.8-156.7 197.1-273.6 4.8-28.8 5.1-35.2 5.1-115v-76l-2.3-5.8c-6.3-15.5-19-24.3-36.7-25.4-14.7-1-26 3.2-35 12.9-3.2 3.4-6.3 8-7.6 11.5l-2.4 5.8-.6 78.5c-.6 73.7-1.1 85-3.9 105-10 70.5-41.7 133-91.3 179.4-53.8 50.5-122.9 81-205.2 90.8-14.6 1.7-67.4 1.7-82 0-66.3-7.9-125.3-29.7-173.5-64.2-68.3-48.9-111.1-120.2-123-205-2.8-19.4-3.3-32.7-3.9-106l-.6-78.5-2.4-5.8c-4.4-11.1-16.1-20.8-28.2-23.6-6.2-1.5-17.5-1.2-23.8.5z"/></svg>