<svg xmlns="http://www.w3.org/2000/svg" width="110" height="110" xmlns:v="https://vecta.io/nano"><circle cx="55" cy="55" r="55" fill="#fff"/><path d="M82.457 35.012v25.615a5.02 5.02 0 0 1-5.012 5.012H42.921c-.216-.003-.432-.018-.646-.045-2.348-.298-4.163-2.206-4.343-4.566l-.023-.401V35.012A5.02 5.02 0 0 1 42.921 30h34.524a5.02 5.02 0 0 1 5.012 5.012z" fill="#eceff1"/><path d="M60.461 30h-17.54a5.02 5.02 0 0 0-5.012 5.012v25.615l.022.4c.18 2.36 1.995 4.268 4.343 4.566.214.027.43.042.646.045h17.541z" fill="#cdd0d2"/><path d="M82.457 54.368v6.259a5.02 5.02 0 0 1-5.012 5.012H42.921a5.88 5.88 0 0 1-.646-.045l22.94-22.942c1.53-1.514 3.994-1.514 5.524 0z" fill="#388e3c"/><path d="M67.79 41.52a3.9 3.9 0 0 0-2.575 1.128l-22.94 22.946c.214.027.43.042.646.045H67.79z" fill="#317c34"/><path d="M69.221 65.641h-26.3c-.216-.003-.432-.018-.646-.045-2.35-.297-4.166-2.207-4.344-4.569l10.58-10.58c1.53-1.514 3.994-1.514 5.524 0z" fill="#4caf50"/><path d="M51.273 49.311c-1.035-.003-2.029.405-2.762 1.136l-10.58 10.58c.18 2.36 1.995 4.268 4.343 4.566.215.028.431.044.647.048h8.469V49.313h-.116z" fill="#429846"/><path d="M49.046 36.682c-2.46 0-4.455 1.995-4.455 4.455s1.995 4.455 4.455 4.455 4.455-1.995 4.455-4.455a4.46 4.46 0 0 0-4.455-4.455z" fill="#ffc107"/><path d="M49.046 36.682c-2.46 0-4.455 1.995-4.455 4.455s1.995 4.455 4.455 4.455h.138v-8.91h-.138z" fill="#dea806"/><path d="M42.92 68.979a8.34 8.34 0 0 1-7.889-5.682l-.078-.256c-.249-.781-.379-1.595-.385-2.414V45.442l-5.404 18.035a5.06 5.06 0 0 0 3.546 6.132l34.442 9.224a5.11 5.11 0 0 0 1.283.165c2.243.012 4.215-1.48 4.813-3.642l2-6.381z" fill="#eceff1"/><path d="M34.568 45.442l-5.404 18.035a5.06 5.06 0 0 0 3.546 6.132l16.89 4.528 1.706-5.159H42.92a8.34 8.34 0 0 1-7.889-5.682l-.078-.256c-.249-.781-.379-1.595-.385-2.414z" fill="#cdd0d2"/></svg>