<svg xmlns="http://www.w3.org/2000/svg" width="18.372" height="20.606" xmlns:v="https://vecta.io/nano"><path d="M16.165 7.14a7.76 7.76 0 0 1 1.183-3.548l-2.618-2.52a4.81 4.81 0 0 1-2.836 1.132c-.958.089-1.922-.098-2.777-.538a5.4 5.4 0 0 1-2.782.538 5.15 5.15 0 0 1-2.7-1.028L1.01 3.692A7.6 7.6 0 0 1 2.086 7.14a6.01 6.01 0 0 1-.5 2.294q-.25.7-.437 1.411c-.078.312-.134.629-.168.949-.022 1.02.301 2.018.917 2.831a10.63 10.63 0 0 0 2.414 2.031c.906.475 1.855.862 2.835 1.155l.551.247.552.242c.35.178.648.444.865.771a2.49 2.49 0 0 1 .888-.771q.358-.148.71-.31l.416-.179.553-.231q.419-.16.841-.308c.493-.154.968-.36 1.416-.617.877-.562 1.678-1.234 2.384-2a4.46 4.46 0 0 0 .948-2.859 9.96 9.96 0 0 0-.631-2.284c-.318-.75-.48-1.557-.475-2.372z" fill="none" stroke="#252c39" stroke-width="1.6"/></svg>