<svg xmlns="http://www.w3.org/2000/svg" width="24.539" height="23.491" fill="none" stroke="#fff" stroke-linejoin="round" stroke-width="1.5" xmlns:v="https://vecta.io/nano"><path d="M10.174 21.694a1.05 1.05 0 0 1-1.047 1.047 1.05 1.05 0 0 1-1.047-1.047 1.05 1.05 0 0 1 1.047-1.047 1.05 1.05 0 0 1 1.047 1.047zm11.52 0a1.05 1.05 0 0 1-1.047 1.047 1.05 1.05 0 0 1-1.047-1.047 1.05 1.05 0 0 1 1.047-1.047c.278 0 .544.11.74.307a1.05 1.05 0 0 1 .307.74z"/><path d="M.75.75h4.189L7.75 14.772c.197.995 1.08 1.705 2.094 1.686h10.175c1.014.019 1.897-.691 2.094-1.686l1.676-8.786H5.986" stroke-linecap="round"/></svg>