<svg xmlns="http://www.w3.org/2000/svg" width="49" height="49" xmlns:v="https://vecta.io/nano"><g fill="#fff" stroke="#e6e6e6"><circle cx="24.5" cy="24.5" r="24.5" stroke="none"/><circle cx="24.5" cy="24.5" r="24" fill="none"/></g><g fill="#8b6bfe"><path d="M34.324 18.7a2.37 2.37 0 0 0-1.74-.734H29.1v-.042c.005-.512-.2-1.005-.566-1.363a1.92 1.92 0 0 0-1.363-.566h-6.287a1.93 1.93 0 0 0-1.376.559c-.366.362-.573.855-.574 1.37v.042h-3.46a2.37 2.37 0 0 0-1.74.734c-.465.463-.728 1.089-.734 1.745v10.442a2.37 2.37 0 0 0 .734 1.74c.461.463 1.086.727 1.74.734h17.11a2.37 2.37 0 0 0 1.74-.734c.463-.461.727-1.086.734-1.74V20.445a2.37 2.37 0 0 0-.734-1.745zm-.356 12.182h-.021a1.36 1.36 0 0 1-1.363 1.363h-17.11a1.36 1.36 0 0 1-1.363-1.363V20.445a1.36 1.36 0 0 1 1.363-1.363h4.047c.15.001.295-.059.401-.165s.166-.251.165-.401v-.608a.79.79 0 0 1 .813-.818h6.269a.79.79 0 0 1 .818.818v.608c-.001.15.059.295.165.401s.251.166.401.165H32.6a1.36 1.36 0 0 1 1.363 1.363zm-9.939-10.374c-2.458.001-4.574 1.739-5.052 4.151s.813 4.825 3.084 5.765 4.891.145 6.257-1.899 1.097-4.769-.641-6.507a5.17 5.17 0 0 0-3.648-1.51zm2.852 8.031a4.05 4.05 0 0 1-5.7 0 4.01 4.01 0 0 1-1.174-2.852 4.1 4.1 0 0 1 1.174-2.852 4.01 4.01 0 0 1 2.852-1.174 4.1 4.1 0 0 1 2.852 1.174 4.01 4.01 0 0 1 1.174 2.852c.013 1.072-.412 2.102-1.178 2.852z"/><circle cx="31.493" cy="21.514" r="1.027"/></g></svg>