<?xml version="1.0" standalone="no"?>
<!DOCTYPE svg PUBLIC "-//W3C//DTD SVG 20010904//EN"
 "http://www.w3.org/TR/2001/REC-SVG-20010904/DTD/svg10.dtd">
<svg version="1.0" xmlns="http://www.w3.org/2000/svg"
 width="54.000000pt" height="54.000000pt" viewBox="0 0 54.000000 54.000000"
 preserveAspectRatio="xMidYMid meet">

<g transform="translate(0.000000,54.000000) scale(0.100000,-0.100000)"
fill="#000000" stroke="none">
<path d="M264 495 c-54 -28 -78 -35 -126 -35 -52 0 -62 -3 -96 -34 l-37 -34
-3 -152 c-4 -166 3 -200 44 -219 35 -15 418 -15 447 1 43 22 46 37 47 191 0
113 -4 157 -15 181 -16 32 -60 66 -88 66 -9 0 -19 9 -22 20 -6 19 -52 50 -74
50 -5 0 -40 -16 -77 -35z m120 -17 c-3 -5 -37 -24 -75 -44 -58 -29 -80 -34
-120 -32 l-50 3 100 52 c88 46 104 51 126 41 13 -6 22 -15 19 -20z m34 -53
l12 -25 -68 0 -67 0 40 24 c52 31 69 31 83 1z m-308 -10 c-60 -32 -83 -32 -47
0 18 16 40 25 60 25 l32 -1 -45 -24z m380 -9 c11 -14 9 -16 -8 -16 -18 0 -42
25 -42 45 0 9 35 -12 50 -29z m16 -61 c28 -43 16 -59 -50 -65 -45 -4 -62 -11
-77 -29 -25 -30 -24 -62 2 -95 18 -22 28 -26 75 -26 59 0 71 -11 60 -53 -10
-41 -43 -47 -252 -47 -194 0 -195 0 -219 25 -24 23 -25 30 -25 147 0 180 -18
168 250 168 l220 0 16 -25z m14 -140 l0 -55 -54 0 c-45 0 -58 4 -70 22 -21 30
-20 44 4 68 15 15 33 20 70 20 l50 0 0 -55z"/>
<path d="M422 231 c-8 -4 -12 -19 -10 -32 2 -18 9 -24 28 -24 28 0 39 27 20
50 -14 17 -20 18 -38 6z m28 -31 c0 -5 -4 -10 -10 -10 -5 0 -10 5 -10 10 0 6
5 10 10 10 6 0 10 -4 10 -10z"/>
</g>
</svg>
